<svg width="108" height="108" viewBox="0 0 108 108" fill="none" xmlns="http://www.w3.org/2000/svg">
<path d="M56.875 42C56.6021 41.473 56.1896 41.0311 55.6826 40.7226C55.1756 40.4142 54.5935 40.251 54 40.251C53.4065 40.251 52.8244 40.4142 52.3174 40.7226C51.8104 41.0311 51.3979 41.473 51.125 42C50.884 42.4637 50.7556 42.9775 50.75 43.5V48.25H57.25V43.5C57.2566 42.976 57.1274 42.4592 56.875 42ZM78 35L54 26L30 35V54.25C30.05 56.65 30.55 64.825 36.75 72.25C43.35 80.15 51.975 81.875 54.25 82.25C56.65 81.775 64.825 79.85 71.25 72.25C75.4978 67.1822 77.9579 60.8562 78.25 54.25C78.175 47.825 78.075 41.425 78 35ZM64.75 66.5H43.25V48.25H47V41.6C47.1491 41.0416 47.3674 40.5041 47.65 40C48.276 38.8638 49.1954 37.9163 50.3123 37.2565C51.4292 36.5966 52.7027 36.2486 54 36.2486C55.2973 36.2486 56.5708 36.5966 57.6877 37.2565C58.8046 37.9163 59.724 38.8638 60.35 40C60.6283 40.5062 60.8464 41.0432 61 41.6V48.25H64.75V66.5ZM54 40.25C53.4056 40.2461 52.8218 40.4078 52.3141 40.7169C51.8063 41.0259 51.3946 41.4702 51.125 42C50.884 42.4637 50.7556 42.9775 50.75 43.5V48.25H57.25V43.5C57.2566 42.976 57.1274 42.4592 56.875 42C56.6029 41.4722 56.1907 41.0297 55.6835 40.7209C55.1763 40.4122 54.5938 40.2493 54 40.25Z" fill="#004F55"/>
</svg>
